# xmcd CD database file
#
# Track frame offsets:
#	150
#	16288
#	30877
#	47515
#	62231
#	76995
#	95737
#	109431
#	128114
#	143830
#	172074
#
# Disc length: 4440 seconds
#
# Revision: 5
# Processed by: cddbd v1.5.2PL0 Copyright (c) Steve Scherf et al.
# Submitted via: CDex 1.70beta2
#
DISCID=9011560b
DTITLE=Intocable - (2003) Nuestro Destino Estaba Escrito
DYEAR=2003
DGENRE=Norteño
TTITLE0=A donde estabas
TTITLE1=Soy un novato
TTITLE2=Cuantas veces
TTITLE3=Eso duele
TTITLE4=Invisible
TTITLE5=Si pudiera
TTITLE6=Aunque me duela
TTITLE7=Siempre al final
TTITLE8=Historia de amor
TTITLE9=Si nos tenemos
TTITLE10=data
EXTD=YEAR: 2003
EXTT0=
EXTT1=
EXTT2=
EXTT3=
EXTT4=
EXTT5=
EXTT6=
EXTT7=
EXTT8=
EXTT9=
EXTT10=
PLAYORDER=
